<?xml version="1.0" encoding="UTF-8" standalone="no"?>
<!-- Generator: Adobe Illustrator 28.1.0, SVG Export Plug-In . SVG Version: 6.00 Build 0)  -->

<svg
   version="1.1"
   id="Layer_1"
   x="0px"
   y="0px"
   viewBox="0 0 300 129.71761"
   xml:space="preserve"
   sodipodi:docname="Team Falcons-01.svg"
   width="300"
   height="129.71761"
   inkscape:version="1.4 (e7c3feb1, 2024-10-09)"
   xmlns:inkscape="http://www.inkscape.org/namespaces/inkscape"
   xmlns:sodipodi="http://sodipodi.sourceforge.net/DTD/sodipodi-0.dtd"
   xmlns="http://www.w3.org/2000/svg"
   xmlns:svg="http://www.w3.org/2000/svg"><defs
   id="defs13">
	
	

		
	
		
	
			
			
			
			
			
			
			
			
			
			
			
		</defs><sodipodi:namedview
   id="namedview13"
   pagecolor="#ffffff"
   bordercolor="#000000"
   borderopacity="0.25"
   inkscape:showpageshadow="2"
   inkscape:pageopacity="0.0"
   inkscape:pagecheckerboard="0"
   inkscape:deskcolor="#d1d1d1"
   inkscape:zoom="0.89477384"
   inkscape:cx="264.8714"
   inkscape:cy="224.07897"
   inkscape:window-width="1440"
   inkscape:window-height="900"
   inkscape:window-x="0"
   inkscape:window-y="0"
   inkscape:window-maximized="0"
   inkscape:current-layer="Layer_1" />
<style
   type="text/css"
   id="style1">
	.st0{fill-rule:evenodd;clip-rule:evenodd;fill:#00C265;}
	.st1{fill:#002C6B;}
	.st2{fill:#00C265;}
</style>
<g
   id="g15"
   transform="matrix(0.49833887,0,0,0.49833887,-99.219269,-184.33555)"><path
     class="st0"
     d="m 257.1,369.9 c -61.6,31.2 -70.8,111.2 -16.4,143.2 33,19.4 71,3.3 83.3,52 -35,-50 -93,1.1 -124.9,-95.8 2.2,120.7 104.8,88.7 103,136.2 -20.8,-21.6 -55.7,-17.7 -82.7,-38.7 22.2,31.8 59.8,52 84.8,63.4 25.7,-11.4 61.3,-29.6 65.6,-60.3 3.1,-22.2 -5.4,-44.1 -29.8,-61.5 34,4.5 53.4,34.4 44.6,64.1 38.6,-46.3 5.3,-91.3 -58.4,-99.2 52.7,-1.8 90.5,15.5 80.7,60.6 19.8,-57 0.1,-63.2 -30.6,-75 -7.9,-3.1 -14.6,-5.8 -20.4,-12.2 -17,-19 -2.7,-53.9 27.5,-36.3 1.3,-18.6 -5.3,-23.9 -26.2,-24 -38.6,-15.4 -63.7,1.3 -82.8,50.7 l 13.3,23.9 c -35.5,-19.1 -34.9,-45.8 -1.9,-91 -43.4,17.7 -68.5,69.1 -27.8,108 -43.7,-17.9 -38,-65 -0.9,-108.1 z"
     id="path1" /><g
     id="g13"><path
       class="st1"
       d="m 628.4,437.3 c 5,-5.6 11.2,-7.6 18.4,-7 7.1,0.6 12.7,3.8 16.4,10 1.2,-1.3 2.2,-2.7 3.4,-3.9 8.6,-8.4 23.4,-8.4 31.5,0 3.9,4.1 5.8,9.1 5.9,14.6 0.2,11.5 0.1,23 0.1,34.5 0,0.1 0,0.2 -0.1,0.4 -5.4,0 -10.9,0 -16.5,0 0,-0.6 0,-1.1 0,-1.6 0,-9.3 0,-18.6 0,-28 0,-1.3 -0.1,-2.7 -0.4,-4 -1.2,-5.2 -5.6,-8.1 -11.2,-7.6 -6.1,0.6 -9.5,4.5 -9.6,10.9 0,9.5 0,19.1 0,28.6 0,0.5 0,1 0,1.7 -5.6,0 -11,0 -16.7,0 0,-0.5 0,-1 0,-1.5 0,-9.4 0,-18.8 0,-28.2 0,-1.3 -0.1,-2.5 -0.4,-3.8 -1.2,-5.2 -5.6,-8.2 -11.1,-7.7 -6.1,0.6 -9.6,4.4 -9.6,10.6 -0.1,9.6 0,19.3 0,28.9 0,0.5 0,1 0,1.7 -0.5,0 -0.9,0.1 -1.3,0.1 -4.7,0 -9.4,0 -14.1,0 -1.2,0 -1.4,-0.4 -1.4,-1.5 0,-17.4 0,-34.8 0,-52.3 0,-0.5 0,-0.9 0.1,-1.5 5.6,0 11,0 16.7,0 -0.1,2.3 -0.1,4.4 -0.1,6.6 z"
       id="path3" /><path
       class="st1"
       d="m 585.3,430.8 c 5.6,0 11.1,0 16.7,0 0,18.3 0,36.7 0,55.1 -5.5,0 -10.9,0 -16.6,0 0,-2.4 0,-4.8 0,-7.6 -0.4,0.3 -0.5,0.5 -0.6,0.6 -4.4,5.8 -10.5,8.2 -17.6,7.8 -9,-0.5 -15.6,-5 -19.5,-13 -5,-10.3 -5,-20.9 0.1,-31.1 5.8,-11.6 17.8,-14.8 27.8,-11.6 3.7,1.1 6.7,3.3 9,6.4 0.2,0.2 0.4,0.5 0.8,1 -0.1,-2.7 -0.1,-5.1 -0.1,-7.6 z m -12,41.3 c 5,0 9.4,-3 11.1,-7.8 1.2,-3.3 1.3,-6.8 0.5,-10.2 -1.2,-5.5 -5.9,-9.4 -11.2,-9.4 -5.8,-0.1 -10.5,3.4 -11.9,9 -0.7,2.5 -0.7,5.1 -0.3,7.7 0.8,6.2 5.7,10.7 11.8,10.7 z"
       id="path4" /><path
       class="st1"
       d="m 541,462.4 c -12.8,0 -25.3,0 -38.1,0 0,2.7 0.8,5 2.3,7 3.9,5.1 13.5,5.1 16.5,-0.9 0.2,-0.3 0.7,-0.7 1,-0.7 5.3,0 10.7,0 16,0 0.3,0 0.6,0 1.1,0 -0.1,0.5 -0.2,1 -0.4,1.4 -3.4,9.8 -10.4,15.4 -20.4,17.2 -5.2,0.9 -10.3,0.6 -15.3,-1.1 -10,-3.5 -15.6,-10.9 -17.3,-21.3 -1,-6.1 -0.6,-12.1 1.7,-17.8 3.8,-9.3 10.9,-14.4 20.7,-15.9 5.8,-0.9 11.6,-0.4 17,2 9,4 13.8,11.2 14.9,20.9 0.6,3 0.3,6 0.3,9.2 z M 524.1,453 c 0,-2.5 -0.7,-4.6 -2.3,-6.3 -4.2,-4.5 -12.3,-4.3 -16.3,0.3 -1.5,1.7 -2.2,3.7 -2.5,6 7.1,0 14,0 21.1,0 z"
       id="path6" /><path
       class="st1"
       d="m 483.7,416.5 c 0,4.5 0,8.9 0,13.4 -6.1,0 -12.1,0 -18.2,0 0,18.7 0,37.3 0,56 -0.6,0 -1,0.1 -1.5,0.1 -4.6,0 -9.2,0 -13.8,0 -1.2,0 -1.5,-0.3 -1.5,-1.5 0,-17.6 0,-35.1 0,-52.7 0,-0.6 0,-1.2 0,-1.9 -6.2,0 -12.2,0 -18.3,0 0,-4.5 0,-8.9 0,-13.4 17.7,0 35.4,0 53.3,0 z"
       id="path11" /></g><g
     id="g14"><path
       class="st1"
       d="m 800.9,568.1 c -0.1,0.6 -0.3,1.2 -0.4,1.8 -1,4.5 -3.6,7.7 -7.4,10 -4,2.4 -8.4,3.4 -13.1,3.5 -5.9,0.2 -11.5,-0.7 -16.7,-3.7 -5.1,-2.9 -8.5,-7.1 -9.7,-13 -0.1,-0.4 -0.1,-0.9 -0.2,-1.3 0,-0.2 0,-0.4 0,-0.7 5.5,0 10.9,0 16.3,0 2.1,5.3 5.9,7.3 11.3,6.1 1.7,-0.4 3.2,-1.2 3.8,-3 0.7,-2 -0.1,-3.9 -2.3,-4.8 -2.9,-1.1 -5.9,-1.9 -8.8,-2.8 -2.9,-0.9 -6,-1.6 -8.8,-2.7 -4.7,-1.8 -8.3,-4.9 -9.4,-10.2 -1.4,-6.4 1,-12.7 6.4,-16.5 3.5,-2.4 7.4,-3.7 11.6,-4.1 5.1,-0.5 10.2,-0.3 15,1.7 6.8,2.9 10.7,8.1 12,15.4 0.1,0.4 0.1,0.9 0.1,1.4 -5.1,0 -10.2,0 -15.4,0 -0.7,-3.2 -2.5,-5.3 -5.7,-5.8 -1.8,-0.3 -3.6,-0.2 -5.4,0.1 -2,0.3 -3,1.8 -3.2,3.5 -0.1,1.8 0.6,3.2 2.6,4 2.3,0.9 4.7,1.5 7.1,2.2 3.3,1 6.7,1.8 10,3.1 5.7,2.2 9.6,6 10.3,12.5 0,0.2 0.1,0.3 0.2,0.5 -0.2,0.9 -0.2,1.9 -0.2,2.8 z"
       id="path2" /><path
       class="st1"
       d="m 523,535 c 0,-2.7 0,-5.1 0,-7.5 5.6,0 11.1,0 16.7,0 0,18.3 0,36.6 0,55.1 -5.5,0 -11,0 -16.6,0 0,-2.4 0,-4.8 0,-7.5 -0.3,0.2 -0.5,0.3 -0.6,0.4 -4.4,5.9 -10.5,8.3 -17.7,7.9 -8.1,-0.4 -14.5,-4.1 -18.4,-11 -6.4,-11.2 -6.5,-22.9 -0.3,-34.3 5.8,-10.6 17.5,-13.5 27.2,-10.4 3.6,1.1 6.6,3.3 8.9,6.4 0.2,0.2 0.4,0.5 0.8,0.9 z m -12,33.7 c 5.1,0 9.4,-3 11.1,-7.8 1.2,-3.4 1.3,-6.9 0.4,-10.5 -1.3,-5.4 -5.9,-9.1 -11.1,-9.2 -5.8,-0.1 -10.5,3.3 -11.8,8.9 -0.6,2.4 -0.7,5 -0.4,7.4 0.5,6.5 5.6,11.2 11.8,11.2 z"
       id="path5" /><path
       class="st1"
       d="m 658,583.5 c -9.5,-0.2 -17.2,-3 -23,-10.2 -3.3,-4.2 -5.1,-9 -5.6,-14.3 -0.6,-5.7 -0.1,-11.3 2.3,-16.6 4.2,-9 11.4,-14 21,-15.5 6.6,-1 13.1,-0.3 19.1,2.9 8.7,4.6 13.2,12 14.2,21.7 0.6,5.2 0.1,10.3 -1.9,15.1 -4,9.6 -11.4,14.8 -21.4,16.5 -1.7,0.2 -3.5,0.3 -4.7,0.4 z m 11.4,-28.3 c -0.3,-1.9 -0.4,-3.6 -0.8,-5.3 -1.3,-5.3 -5.7,-8.8 -10.9,-8.8 -5.3,0 -9.4,3.3 -10.8,8.7 -0.9,3.5 -0.9,7 0,10.5 1.4,5.2 5.4,8.5 10.5,8.5 5.1,0.1 9.5,-3.2 11,-8.2 0.5,-1.8 0.7,-3.7 1,-5.4 z"
       id="path7" /><path
       class="st1"
       d="m 747.2,582.6 c -5.6,0 -11.1,0 -16.7,0 0,-0.6 0,-1.1 0,-1.6 0,-9.4 0,-18.7 0,-28.1 0,-1.3 -0.1,-2.7 -0.4,-4 -1.2,-5.3 -5.7,-8.5 -11.1,-7.9 -6.1,0.6 -9.6,4.7 -9.6,11.4 0,9.5 0,19.1 0,28.6 0,0.5 0,1 0,1.6 -5.6,0 -11,0 -16.6,0 0,-18.3 0,-36.6 0,-55 5.5,0 10.9,0 16.6,0 0,2.3 0,4.5 0,7 0.3,-0.2 0.5,-0.3 0.6,-0.4 4.3,-5.3 10.1,-7.5 16.7,-7.3 11.4,0.3 19.1,7.5 20.3,19 0.2,1.4 0.3,2.9 0.3,4.3 0,10.4 0,20.7 0,31.1 -0.1,0.3 -0.1,0.7 -0.1,1.3 z"
       id="path8" /><path
       class="st1"
       d="m 478.9,526.6 c -9.3,0 -18.6,0 -28,0 0,4.9 0,9.8 0,14.7 7,0 13.9,0 20.9,0 0,4.4 0,8.7 0,13.1 -6.9,0 -13.9,0 -21,0 0,9.5 0,18.8 0,28.1 -0.5,0 -0.8,0.1 -1.2,0.1 -4.8,0 -9.6,0 -14.3,0 -1,0 -1.3,-0.3 -1.3,-1.3 0,-22.4 0,-44.7 0,-67.1 0,-0.4 0.1,-0.8 0.1,-1.2 14.9,0 29.8,0 44.7,0 0.1,4.6 0.1,9 0.1,13.6 z"
       id="path9" /><path
       class="st1"
       d="m 626.1,547.3 c -5.8,0 -11.4,0 -17,0 -0.3,0 -0.7,-0.4 -0.9,-0.7 -1.8,-4.1 -5,-5.9 -9.4,-5.6 -4.2,0.3 -6.8,2.7 -8.2,6.5 -1.8,5 -1.8,10.1 0,15 1.9,5.2 6.6,7.6 11.8,6.1 2.6,-0.7 4.4,-2.4 5.4,-4.9 0.4,-0.9 0.9,-1.2 1.9,-1.1 5,0 10,0 15,0 0.4,0 0.8,0 1.4,0 -0.2,0.8 -0.3,1.4 -0.5,2 -3.5,11.9 -13.2,18.8 -26.1,18.7 -8.1,-0.1 -15.3,-2.6 -20.8,-8.9 -4,-4.6 -5.9,-10.1 -6.4,-16 -0.4,-5.5 0,-11 2.2,-16.2 3.9,-8.9 10.7,-13.9 20.1,-15.3 5.9,-0.9 11.7,-0.5 17.2,2 7.6,3.4 12,9.6 14,17.6 0.3,0.2 0.3,0.5 0.3,0.8 z"
       id="path10" /><path
       class="st1"
       d="m 566,582.6 c -5.5,0 -11,0 -16.5,0 0,-24.4 0,-48.8 0,-73.2 5.5,0 10.9,0 16.5,0 0,24.3 0,48.7 0,73.2 z"
       id="path12" /></g></g>
</svg>
